<svg xmlns="http://www.w3.org/2000/svg" width="768" height="72" viewBox="0 0 768 72" fill="none">
  <path d="M-421.582 35.7097C-301.115 4.55991 -223.27 -1.47754 -157.25 4.53967C-133.126 6.73841 -110.581 10.5452 -88.1054 15.3295C-87.961 17.515 -86.1407 19.243 -83.9164 19.243C-82.3216 19.243 -80.9344 18.3547 -80.2238 17.0464C-60.8642 21.356 -41.4245 26.336 -20.9397 31.5837C-2.84921 36.218 16.0566 41.0612 36.4422 45.8359L36.4771 45.8441L36.5125 45.8492C39.2181 46.2428 41.9069 46.6207 44.5791 46.9833C44.9238 48.9529 46.6442 50.45 48.7145 50.45C50.4015 50.45 51.856 49.4561 52.5234 48.0226C98.3571 53.7943 139.332 55.054 177.387 53.5603C177.964 55.1881 179.519 56.354 181.346 56.354C183.304 56.354 184.949 55.0147 185.413 53.203C229.768 50.9952 270.262 45.1391 310.067 38.5097C310.679 40.0685 312.199 41.1722 313.977 41.1722C316.238 41.1722 318.082 39.3859 318.172 37.1486C325.831 35.8528 333.472 34.5355 341.118 33.2173C354.724 30.8718 368.345 28.5236 382.111 26.2886C401.913 23.0735 422.019 20.0914 442.812 17.6873C443.485 19.1056 444.932 20.0865 446.607 20.0865C448.612 20.0865 450.288 18.6833 450.706 16.8066C488.977 12.6951 529.695 10.6528 575.186 12.776C575.67 14.5584 577.301 15.8693 579.238 15.8693C581.023 15.8693 582.548 14.7568 583.155 13.1882C620.93 15.3321 662.007 20.3604 707.671 29.4298C707.694 31.7265 709.565 33.5814 711.87 33.5814C713.593 33.5814 715.073 32.5442 715.72 31.0606C735.686 35.1854 756.522 40.0774 778.332 45.8299C799.353 51.3742 819.94 56.0377 840.302 59.7939C840.325 62.0904 842.196 63.9449 844.5 63.9449C846.292 63.9449 847.821 62.824 848.424 61.2459C957.528 80.127 1060.94 72.7098 1191 34.8596L1190.53 33.2393C1060.7 71.024 957.538 78.4193 848.695 59.5813C848.606 57.3437 846.762 55.557 844.5 55.557C842.754 55.557 841.256 56.6224 840.624 58.1383C820.297 54.389 799.744 49.7335 778.759 44.1983C756.922 38.4389 736.06 33.5407 716.068 29.4103C716.068 29.4027 716.068 29.395 716.068 29.3874C716.068 27.0711 714.188 25.1934 711.87 25.1934C710.123 25.1934 708.626 26.2587 707.993 27.7742C662.323 18.7038 621.229 13.6683 583.434 11.5145C583.349 9.27276 581.503 7.48136 579.238 7.48136C577.121 7.48136 575.37 9.04697 575.082 11.0825C529.649 8.97253 488.968 11.008 450.732 15.1075C450.365 13.1664 448.658 11.6985 446.607 11.6985C444.289 11.6985 442.409 13.5762 442.409 15.8925C442.409 15.9404 442.41 15.9882 442.411 16.0357C421.665 18.4389 401.602 21.4153 381.843 24.6233C368.061 26.861 354.43 29.2106 340.82 31.5565L340.818 31.5569C333.18 32.8736 325.548 34.1891 317.9 35.4829C317.297 33.905 315.768 32.7843 313.977 32.7843C311.702 32.7843 309.85 34.5912 309.78 36.8464C270.056 43.462 229.686 49.301 185.494 51.5107C185.182 49.5028 183.443 47.9661 181.346 47.9661C179.12 47.9661 177.3 49.6954 177.156 51.8821C139.277 53.361 98.5072 52.1034 52.9113 46.3714C52.9124 46.3331 52.9129 46.2946 52.9129 46.256C52.9129 43.9398 51.0332 42.0621 48.7145 42.0621C46.7295 42.0621 45.0662 43.4383 44.6287 45.2878C42.031 44.9348 39.4178 44.5673 36.7885 44.1849C16.4996 39.4324 -2.349 34.6039 -20.4064 29.978L-20.4091 29.9773C-40.8862 24.7316 -60.3459 19.7465 -79.735 15.4283C-79.7238 15.3034 -79.718 15.1769 -79.718 15.0491C-79.718 12.7328 -81.5977 10.8551 -83.9164 10.8551C-85.7458 10.8551 -87.3019 12.024 -87.8772 13.655C-110.375 8.87022 -132.955 5.06016 -157.098 2.85971C-223.366 -3.18008 -301.412 2.89481 -422 34.0761L-421.582 35.7097Z" fill="#0F0F10" fill-opacity="0.4"/>
</svg>